<?xml version="1.0" encoding="utf-8"?>
<!-- Generator: Adobe Illustrator 26.4.1, SVG Export Plug-In . SVG Version: 6.00 Build 0)  -->
<svg version="1.1" id="Layer_1" xmlns="http://www.w3.org/2000/svg" xmlns:xlink="http://www.w3.org/1999/xlink" x="0px" y="0px"
	 viewBox="0 0 30 30" style="enable-background:new 0 0 30 30;" xml:space="preserve">
<style type="text/css">
	.st0{fill:#3D294C;}
</style>
<path id="box-check" class="st0" d="M28.5,0h-27C0.7,0,0,0.5,0,1.3c0,0.1,0,0.1,0,0.2v27C0,29.3,0.5,30,1.3,30c0.1,0,0.1,0,0.2,0h27
	c0.8,0,1.5-0.5,1.5-1.3c0-0.1,0-0.1,0-0.2v-27C30,0.7,29.5,0,28.7,0C28.6,0,28.6,0,28.5,0z M23.5,10.9L13.3,21.1
	c-0.6,0.6-1.5,0.6-2.1,0c0,0,0,0,0,0l-4.8-4.8c-0.6-0.6-0.6-1.5,0-2.1c0.6-0.6,1.5-0.6,2.1,0c0,0,0,0,0,0l3.8,3.8l9.2-9.1
	c0.6-0.6,1.5-0.6,2.1,0S24.1,10.3,23.5,10.9C23.6,10.9,23.6,10.9,23.5,10.9z"/>
</svg>
